# xmcd
#
# Track frame offsets:
#	150
#	12006
#	22885
#	32561
#	45538
#	56907
#	70005
#	79134
#	90786
#	103508
#	114490
#	124874
#	136279
#	150196
#	169484
#	189076
#	208371
#	223076
#	236066
#	249919
#	267366
#	290331
#	310851
#	325799
#
# Disc length: 4544 seconds
#
# Revision: 2
# Processed by: cddbd v1.5.2PL0 Copyright (c) Steve Scherf et al.
# Submitted via: audiograbber 1.83.01
#
DISCID=4011be18
DTITLE=Frankie Laine - Eight Classic Albums  [CD1)
DYEAR=1958
DGENRE=Oldies
TTITLE0=Wanted Man
TTITLE1=High Noon (Do Not Forsake Me)
TTITLE2=Gunfight At O.K. Corral
TTITLE3=Bowie Knife
TTITLE4=Along The Navajo Trail
TTITLE5=The Cry Of The Wild Goose
TTITLE6=Raw Hide
TTITLE7=City Boy
TTITLE8=Cool Water
TTITLE9=The 3.10 To Yuma
TTITLE10=The Hanging Tree
TTITLE11=Mule Train
TTITLE12=A Cottage For Sale  
TTITLE13=Torchin'
TTITLE14=I Cover The Waterfront
TTITLE15=Here Lies Love
TTITLE16=You've Changed
TTITLE17=Midnight On A Rainy Monday
TTITLE18=I Get Along Without You Very Well
TTITLE19=It's The Talk Of The Town
TTITLE20=These Foolish Things
TTITLE21=I Got It Bad
TTITLE22=It Only Happens Once
TTITLE23=Body And Soul
EXTD=
EXTT0=
EXTT1=
EXTT2=
EXTT3=
EXTT4=
EXTT5=
EXTT6=
EXTT7=
EXTT8=
EXTT9=
EXTT10=
EXTT11=
EXTT12=
EXTT13=
EXTT14=
EXTT15=
EXTT16=
EXTT17=
EXTT18=
EXTT19=
EXTT20=
EXTT21=
EXTT22=
EXTT23=
PLAYORDER=
